<svg width="115" height="23" viewBox="0 0 115 23" fill="none" xmlns="http://www.w3.org/2000/svg">
<path d="M1.52516 10.2688L13.904 0.975952H14.8043H15.8546L16.7549 1.48905L17.3551 2.05917L17.5801 2.91433L17.3551 3.37042L16.9799 4.05456L16.2297 4.62467L15.4795 4.85271H13.3038L12.1785 4.90973L11.3532 5.25179L10.3779 5.76489L9.62767 6.39202L9.02748 7.13316L8.7649 7.64626L8.57735 8.10235L8.50232 8.67246V9.24258L8.7649 9.98372L9.10251 10.4968L9.4026 10.8959C9.4026 10.8959 9.62767 11.181 10.1528 11.58C10.678 11.9791 11.2032 12.2072 11.2032 12.2072L12.0284 12.5492L13.0037 12.7203C13.0037 12.7203 16.7549 12.7203 16.9799 12.7773C17.205 12.8343 17.7302 13.1193 17.7302 13.1193C17.7302 13.1193 18.1803 13.4614 18.2553 13.5754C18.3304 13.6895 18.4054 14.1455 18.4054 14.1455V14.8867C18.4054 14.8867 18.0384 15.301 17.7302 15.5138C17.4655 15.6965 16.9799 15.9129 16.9799 15.9129H5.80149L4.67614 15.1717L3.32572 14.1455L2.05033 13.1193L1.15005 12.3212L1 11.523L1.15005 10.8959L1.52516 10.2688Z" fill="#509AD4" stroke="#509AD4"/>
<path d="M28.4687 12.7309L16.0797 22.0159L15.1794 22.0153L14.1291 22.0147L13.2294 21.501L12.6298 20.9305L12.4057 20.0752L12.6312 19.6193L13.0071 18.9354L13.758 18.3657L14.5084 18.1382L16.6841 18.1395L17.8095 18.0832L18.6352 17.7417L19.611 17.2292L20.3619 16.6025L20.9629 15.8618L21.2261 15.3488L21.4141 14.8929L21.4898 14.3228L21.4904 13.7527L21.2286 13.0114L20.8916 12.4981L20.5919 12.0988C20.5919 12.0988 20.3672 11.8136 19.8424 11.4142C19.3177 11.0148 18.7928 10.7864 18.7928 10.7864L17.9679 10.4438L16.9928 10.2722C16.9928 10.2722 13.2416 10.2698 13.0166 10.2127C12.7916 10.1555 12.2668 9.87012 12.2668 9.87012C12.2668 9.87012 11.817 9.52777 11.7421 9.4137C11.6672 9.29963 11.5927 8.84349 11.5927 8.84349L11.5935 8.10235C11.5935 8.10235 11.9609 7.68822 12.2694 7.47565C12.5343 7.29308 13.0201 7.07704 13.0201 7.07704L24.1985 7.08409L25.323 7.82594L26.6723 8.853L27.9466 9.88L28.846 10.6787L28.9952 11.477L28.8445 12.104L28.4687 12.7309Z" fill="#509AD4" stroke="#509AD4"/>
<path d="M42.48 22.21C40.94 22.21 39.56 21.96 38.34 21.46C37.12 20.96 36.14 20.22 35.4 19.24C34.68 18.26 34.3 17.08 34.26 15.7H39.72C39.8 16.48 40.07 17.08 40.53 17.5C40.99 17.9 41.59 18.1 42.33 18.1C43.09 18.1 43.69 17.93 44.13 17.59C44.57 17.23 44.79 16.74 44.79 16.12C44.79 15.6 44.61 15.17 44.25 14.83C43.91 14.49 43.48 14.21 42.96 13.99C42.46 13.77 41.74 13.52 40.8 13.24C39.44 12.82 38.33 12.4 37.47 11.98C36.61 11.56 35.87 10.94 35.25 10.12C34.63 9.3 34.32 8.23 34.32 6.91C34.32 4.95 35.03 3.42 36.45 2.32C37.87 1.2 39.72 0.64 42 0.64C44.32 0.64 46.19 1.2 47.61 2.32C49.03 3.42 49.79 4.96 49.89 6.94H44.34C44.3 6.26 44.05 5.73 43.59 5.35C43.13 4.95 42.54 4.75 41.82 4.75C41.2 4.75 40.7 4.92 40.32 5.26C39.94 5.58 39.75 6.05 39.75 6.67C39.75 7.35 40.07 7.88 40.71 8.26C41.35 8.64 42.35 9.05 43.71 9.49C45.07 9.95 46.17 10.39 47.01 10.81C47.87 11.23 48.61 11.84 49.23 12.64C49.85 13.44 50.16 14.47 50.16 15.73C50.16 16.93 49.85 18.02 49.23 19C48.63 19.98 47.75 20.76 46.59 21.34C45.43 21.92 44.06 22.21 42.48 22.21ZM58.447 0.939999V22H53.317V0.939999H58.447ZM72.9047 22L68.5247 14.05H67.2947V22H62.1647V0.939999H70.7747C72.4347 0.939999 73.8447 1.23 75.0047 1.81C76.1847 2.39 77.0647 3.19 77.6447 4.21C78.2247 5.21 78.5147 6.33 78.5147 7.57C78.5147 8.97 78.1147 10.22 77.3147 11.32C76.5347 12.42 75.3747 13.2 73.8347 13.66L78.6947 22H72.9047ZM67.2947 10.42H70.4747C71.4147 10.42 72.1147 10.19 72.5747 9.73C73.0547 9.27 73.2947 8.62 73.2947 7.78C73.2947 6.98 73.0547 6.35 72.5747 5.89C72.1147 5.43 71.4147 5.2 70.4747 5.2H67.2947V10.42ZM86.865 0.939999V22H81.735V0.939999H86.865ZM89.7126 11.44C89.7126 9.36 90.1626 7.51 91.0626 5.89C91.9626 4.25 93.2126 2.98 94.8126 2.08C96.4326 1.16 98.2626 0.699999 100.303 0.699999C102.803 0.699999 104.943 1.36 106.723 2.68C108.503 4 109.693 5.8 110.293 8.08H104.653C104.233 7.2 103.633 6.53 102.853 6.07C102.093 5.61 101.223 5.38 100.243 5.38C98.6626 5.38 97.3826 5.93 96.4026 7.03C95.4226 8.13 94.9326 9.6 94.9326 11.44C94.9326 13.28 95.4226 14.75 96.4026 15.85C97.3826 16.95 98.6626 17.5 100.243 17.5C101.223 17.5 102.093 17.27 102.853 16.81C103.633 16.35 104.233 15.68 104.653 14.8H110.293C109.693 17.08 108.503 18.88 106.723 20.2C104.943 21.5 102.803 22.15 100.303 22.15C98.2626 22.15 96.4326 21.7 94.8126 20.8C93.2126 19.88 91.9626 18.61 91.0626 16.99C90.1626 15.37 89.7126 13.52 89.7126 11.44Z" fill="#509AD4"/>
</svg>
